TITLE "Transistor Blast [disc 4] Live In Concert Hammersmith Palais 22.12.80"
PERFORMER "XTC"
REM DATE "1996"
REM DISCID A90D3B0D
FILE "XTC - Transistor Blast [disc 4] Live In Concert Hammersmith Palais 22.12.80.flac" WAVE
  TRACK 01 AUDIO
    TITLE "Life Begins at the Hop"
    PERFORMER "XTC"
    INDEX 00 00:00:00
    INDEX 01 00:00:30
  TRACK 02 AUDIO
    TITLE "Burning with Optimism's Flames"
    PERFORMER "XTC"
    INDEX 01 03:57:00
  TRACK 03 AUDIO
    TITLE "Love at First Sight"
    PERFORMER "XTC"
    INDEX 01 08:26:67
  TRACK 04 AUDIO
    TITLE "Respectable Street"
    PERFORMER "XTC"
    INDEX 01 11:30:35
  TRACK 05 AUDIO
    TITLE "No Language in Our Lungs"
    PERFORMER "XTC"
    INDEX 01 15:22:62
  TRACK 06 AUDIO
    TITLE "This Is Pop"
    PERFORMER "XTC"
    INDEX 01 20:21:22
  TRACK 07 AUDIO
    TITLE "Scissor Man"
    PERFORMER "XTC"
    INDEX 01 23:11:03
  TRACK 08 AUDIO
    TITLE "Towers of London"
    PERFORMER "XTC"
    INDEX 01 28:08:66
  TRACK 09 AUDIO
    TITLE "Battery Brides"
    PERFORMER "XTC"
    INDEX 01 33:22:16
  TRACK 10 AUDIO
    TITLE "Living through Another Cuba"
    PERFORMER "XTC"
    INDEX 01 40:43:09
  TRACK 11 AUDIO
    TITLE "Generals and Majors"
    PERFORMER "XTC"
    INDEX 01 44:12:31
  TRACK 12 AUDIO
    TITLE "Making Plans for Nigel"
    PERFORMER "XTC"
    INDEX 01 48:49:29
  TRACK 13 AUDIO
    TITLE "Are You Receiving Me?"
    PERFORMER "XTC"
    INDEX 01 53:10:65
